<?xml version="1.0" encoding="utf-8"?>
<!-- Generated by IcoMoon.io -->
<!DOCTYPE svg PUBLIC "-//W3C//DTD SVG 1.1//EN" "http://www.w3.org/Graphics/SVG/1.1/DTD/svg11.dtd">
<svg version="1.1" xmlns="http://www.w3.org/2000/svg" xmlns:xlink="http://www.w3.org/1999/xlink" width="48" height="48" viewBox="0 0 48 48">
<path fill="#444444" d="M21.531 0.521c-3.511 1.591-4.855 5.76-2.962 9.106 1.947 3.483 6.528 4.334 9.408 1.728 2.853-2.578 2.99-6.747 0.329-9.408-1.947-1.92-4.498-2.469-6.775-1.426z"></path>
<path fill="#444444" d="M7.296 6.034c-1.454 0.933-2.633 2.99-2.633 4.635 0 2.688 1.838 5.184 4.306 5.76 1.92 0.466 3.127 0.082 4.663-1.481 0.686-0.686 1.344-1.234 1.454-1.234 0.466 0 0.878-2.030 0.741-3.511-0.302-3.017-2.523-4.992-5.568-4.992-1.371 0-1.865 0.137-2.962 0.823z"></path>
<path fill="#444444" d="M34.697 5.842c-1.563 0.878-2.606 2.496-2.798 4.361-0.192 1.947 0.247 3.264 1.289 3.867 0.439 0.274 1.042 0.85 1.371 1.289 1.317 1.838 4.663 1.646 6.693-0.384 1.893-1.865 2.277-4.224 1.125-6.665-0.933-2.057-2.633-3.099-4.91-3.099-1.234 0-1.975 0.165-2.77 0.631z"></path>
<path fill="#444444" d="M16.155 15.662c-0.549 0.329-1.262 1.070-1.591 1.618-0.549 0.96-0.576 1.426-0.576 7.241 0 6.912 0.137 7.57 1.673 8.75 0.521 0.384 1.399 0.768 1.975 0.878l1.015 0.192v5.266c0 5.979 0.192 6.665 2.085 7.79 0.933 0.549 1.371 0.603 3.456 0.549 2.551-0.082 3.291-0.411 4.443-1.975 0.521-0.686 0.576-1.207 0.658-6.199l0.082-5.431 0.878-0.165c1.454-0.274 2.661-1.179 3.209-2.441 0.466-1.015 0.549-1.838 0.549-7.049 0-5.595-0.027-5.979-0.603-7.131-1.207-2.304-1.207-2.331-9.216-2.414-6.775-0.055-7.077-0.027-8.037 0.521z"></path>
<path fill="#444444" d="M3.154 19.2c-1.646 1.070-1.783 1.728-1.783 7.954 0 5.129 0.055 5.705 0.549 6.528 0.631 1.015 2.057 1.975 2.962 1.975 0.603 0 0.603 0 0.603 4.581 0 5.184 0.219 6.034 1.893 7.131 1.262 0.85 4.389 0.905 5.733 0.082 1.783-1.097 1.975-1.783 1.975-7.022v-4.663l-1.317-1.371c-1.838-1.92-1.975-2.551-1.975-9.682v-6.062h-3.895c-3.456 0-4.032 0.082-4.745 0.549z"></path>
<path fill="#444444" d="M35.931 24.713c0 7.131-0.137 7.762-1.975 9.682l-1.317 1.371v4.663c0 5.239 0.192 5.925 1.975 7.022 1.344 0.823 4.471 0.768 5.733-0.082 1.673-1.097 1.893-1.947 1.893-7.131 0-4.581 0-4.581 0.631-4.581 0.878 0 2.304-0.96 2.935-1.975 0.494-0.823 0.549-1.399 0.549-6.473 0-6.254-0.165-7.022-1.783-8.009-0.768-0.494-1.344-0.549-4.773-0.549h-3.867v6.062z"></path>
</svg>
